<mxfile host="65bd71144e">
    <diagram id="KAAKDNiFRIcpVcVMAywB" name="Page-1">
        <mxGraphModel dx="2087" dy="849" grid="1" gridSize="10" guides="1" tooltips="1" connect="1" arrows="1" fold="1" page="1" pageScale="1" pageWidth="827" pageHeight="1169" math="0" shadow="0">
            <root>
                <mxCell id="0"/>
                <mxCell id="1" parent="0"/>
                <mxCell id="14" style="edgeStyle=none;html=1;entryX=0.55;entryY=0.013;entryDx=0;entryDy=0;entryPerimeter=0;" edge="1" parent="1" source="2" target="11">
                    <mxGeometry relative="1" as="geometry"/>
                </mxCell>
                <mxCell id="2" value="&lt;b&gt;Artist table&lt;/b&gt;&lt;br&gt;&lt;br&gt;&lt;div&gt;- int (artist_id)&lt;/div&gt;&lt;div&gt;- string (artist_name)&lt;/div&gt;&lt;div&gt;- int (genre_id)&lt;/div&gt;" style="rounded=0;whiteSpace=wrap;html=1;align=center;" parent="1" vertex="1">
                    <mxGeometry x="180" y="90" width="200" height="120" as="geometry"/>
                </mxCell>
                <mxCell id="3" value="&lt;b&gt;Venue table&lt;/b&gt;&lt;br&gt;&lt;br&gt;- int (venue_id)&lt;br&gt;- string (venue_name)&lt;br&gt;- string (location)&lt;br&gt;- string (type)&lt;br&gt;- int (capacity)" style="rounded=0;whiteSpace=wrap;html=1;" parent="1" vertex="1">
                    <mxGeometry x="600" y="60" width="200" height="120" as="geometry"/>
                </mxCell>
                <mxCell id="15" style="edgeStyle=none;html=1;entryX=1;entryY=0.4;entryDx=0;entryDy=0;entryPerimeter=0;" edge="1" parent="1" source="4" target="11">
                    <mxGeometry relative="1" as="geometry"/>
                </mxCell>
                <mxCell id="19" style="edgeStyle=none;html=1;entryX=0.5;entryY=0;entryDx=0;entryDy=0;" edge="1" parent="1" source="4" target="17">
                    <mxGeometry relative="1" as="geometry">
                        <Array as="points">
                            <mxPoint x="500" y="500"/>
                            <mxPoint x="340" y="500"/>
                        </Array>
                    </mxGeometry>
                </mxCell>
                <mxCell id="20" style="edgeStyle=none;html=1;entryX=0.536;entryY=0.008;entryDx=0;entryDy=0;entryPerimeter=0;" edge="1" parent="1" source="4" target="18">
                    <mxGeometry relative="1" as="geometry">
                        <Array as="points">
                            <mxPoint x="500" y="500"/>
                            <mxPoint x="685" y="500"/>
                        </Array>
                    </mxGeometry>
                </mxCell>
                <mxCell id="4" value="&lt;b&gt;concert table&lt;/b&gt;&lt;br&gt;&lt;br&gt;- int (id)&lt;br&gt;- string (concert_name)&lt;br&gt;- int (artist_id)&lt;br&gt;- timestamp (date)&lt;br&gt;- int (venue_id)&lt;br&gt;- int (concert_group_id)" style="rounded=0;whiteSpace=wrap;html=1;" parent="1" vertex="1">
                    <mxGeometry x="400" y="260" width="200" height="170" as="geometry"/>
                </mxCell>
                <mxCell id="5" value="" style="endArrow=classic;html=1;entryX=0.25;entryY=0;entryDx=0;entryDy=0;" parent="1" target="4" edge="1">
                    <mxGeometry width="50" height="50" relative="1" as="geometry">
                        <mxPoint x="380" y="160" as="sourcePoint"/>
                        <mxPoint x="320" y="140" as="targetPoint"/>
                        <Array as="points">
                            <mxPoint x="450" y="160"/>
                        </Array>
                    </mxGeometry>
                </mxCell>
                <mxCell id="6" value="" style="endArrow=classic;html=1;exitX=0;exitY=0.5;exitDx=0;exitDy=0;entryX=0.5;entryY=0;entryDx=0;entryDy=0;" parent="1" source="3" target="4" edge="1">
                    <mxGeometry width="50" height="50" relative="1" as="geometry">
                        <mxPoint x="270" y="190" as="sourcePoint"/>
                        <mxPoint x="320" y="140" as="targetPoint"/>
                        <Array as="points">
                            <mxPoint x="500" y="120"/>
                        </Array>
                    </mxGeometry>
                </mxCell>
                <mxCell id="9" style="edgeStyle=none;html=1;entryX=0;entryY=0.5;entryDx=0;entryDy=0;" edge="1" parent="1" source="8" target="2">
                    <mxGeometry relative="1" as="geometry"/>
                </mxCell>
                <mxCell id="8" value="&lt;b&gt;Genre table&lt;/b&gt;&lt;br&gt;&lt;br&gt;- int (genre_id)&lt;br&gt;- string (genre_name)" style="rounded=0;whiteSpace=wrap;html=1;" vertex="1" parent="1">
                    <mxGeometry x="-80" y="90" width="200" height="120" as="geometry"/>
                </mxCell>
                <mxCell id="16" style="edgeStyle=none;html=1;entryX=1;entryY=0.5;entryDx=0;entryDy=0;" edge="1" parent="1" source="10" target="4">
                    <mxGeometry relative="1" as="geometry"/>
                </mxCell>
                <mxCell id="10" value="&lt;b&gt;concert_groupe table&lt;/b&gt;&lt;br&gt;&lt;br&gt;- int (concert_groupe_id)&lt;br&gt;- string (name)" style="rounded=0;whiteSpace=wrap;html=1;" vertex="1" parent="1">
                    <mxGeometry x="670" y="260" width="190" height="170" as="geometry"/>
                </mxCell>
                <mxCell id="11" value="&lt;b&gt;concert_role table&lt;/b&gt;&lt;br&gt;&lt;br&gt;- int (concert_role_id)&lt;br&gt;- int (artist_id)&lt;br&gt;- int (role_id)" style="rounded=0;whiteSpace=wrap;html=1;" vertex="1" parent="1">
                    <mxGeometry x="190" y="285" width="160" height="150" as="geometry"/>
                </mxCell>
                <mxCell id="13" style="edgeStyle=none;html=1;entryX=0;entryY=0.5;entryDx=0;entryDy=0;" edge="1" parent="1" source="12" target="11">
                    <mxGeometry relative="1" as="geometry"/>
                </mxCell>
                <mxCell id="12" value="&lt;b&gt;role table&lt;/b&gt;&lt;br&gt;&lt;br&gt;- int (role_id)&lt;br&gt;-string (role_name)" style="rounded=0;whiteSpace=wrap;html=1;" vertex="1" parent="1">
                    <mxGeometry x="-80" y="280" width="200" height="160" as="geometry"/>
                </mxCell>
                <mxCell id="23" style="edgeStyle=none;html=1;entryX=0.5;entryY=0;entryDx=0;entryDy=0;" edge="1" parent="1" source="17" target="22">
                    <mxGeometry relative="1" as="geometry"/>
                </mxCell>
                <mxCell id="17" value="&lt;b&gt;ticket table&lt;/b&gt;&lt;br&gt;&lt;br&gt;- int (ticket_id)&lt;br&gt;- string (serial_number)&lt;br&gt;- int (concert_id)&lt;br&gt;- int (ticket_category_id)&lt;br&gt;- string (seat)&lt;br&gt;- timestamp (purchase_date)" style="rounded=0;whiteSpace=wrap;html=1;" vertex="1" parent="1">
                    <mxGeometry x="240" y="550" width="200" height="200" as="geometry"/>
                </mxCell>
                <mxCell id="21" style="edgeStyle=none;html=1;entryX=1;entryY=0.5;entryDx=0;entryDy=0;" edge="1" parent="1" source="18" target="17">
                    <mxGeometry relative="1" as="geometry"/>
                </mxCell>
                <mxCell id="18" value="&lt;b&gt;ticket_category table&lt;/b&gt;&lt;br&gt;&lt;br&gt;- int (ticket_category_id)&lt;br&gt;- string (description)&lt;br&gt;- decimal (price)&lt;br&gt;- timestamp (start_date)&lt;br&gt;- timestamps (end_date)&lt;br&gt;- string (area)&lt;br&gt;- int (concert_id)" style="rounded=0;whiteSpace=wrap;html=1;" vertex="1" parent="1">
                    <mxGeometry x="560" y="550" width="240" height="200" as="geometry"/>
                </mxCell>
                <mxCell id="22" value="&lt;b&gt;order_ticket table&lt;/b&gt;&lt;br&gt;&lt;br&gt;- int (order_ticket_id)&lt;br&gt;- int (customer_order_id)&lt;br&gt;- int (ticket_id)" style="rounded=0;whiteSpace=wrap;html=1;" vertex="1" parent="1">
                    <mxGeometry x="240" y="870" width="200" height="130" as="geometry"/>
                </mxCell>
                <mxCell id="25" style="edgeStyle=none;html=1;entryX=1;entryY=0.5;entryDx=0;entryDy=0;" edge="1" parent="1" source="24" target="22">
                    <mxGeometry relative="1" as="geometry"/>
                </mxCell>
                <mxCell id="24" value="&lt;b&gt;customer_order table&lt;/b&gt;&lt;br&gt;&lt;br&gt;- int (customer_order_id)&lt;br&gt;- int (customer_id)&lt;br&gt;- timestamp (order_time)&lt;br&gt;- decimal (total price)&lt;br&gt;- decimal (discount)&lt;br&gt;- decimal (final_price)" style="rounded=0;whiteSpace=wrap;html=1;" vertex="1" parent="1">
                    <mxGeometry x="580" y="825" width="220" height="220" as="geometry"/>
                </mxCell>
                <mxCell id="27" style="edgeStyle=none;html=1;entryX=1;entryY=0.5;entryDx=0;entryDy=0;" edge="1" parent="1" source="26" target="24">
                    <mxGeometry relative="1" as="geometry"/>
                </mxCell>
                <mxCell id="26" value="&lt;b&gt;customer&lt;/b&gt;&lt;br&gt;&lt;br&gt;- int (customer_id)&lt;br&gt;- string (customer_name)&lt;br&gt;- string (email)&lt;br&gt;- string (password)&lt;br&gt;- string (confirm_password)&lt;br&gt;" style="rounded=0;whiteSpace=wrap;html=1;" vertex="1" parent="1">
                    <mxGeometry x="950" y="860" width="240" height="150" as="geometry"/>
                </mxCell>
            </root>
        </mxGraphModel>
    </diagram>
</mxfile>